<svg width="42" height="42" viewBox="0 0 42 42" fill="none" xmlns="http://www.w3.org/2000/svg">
<circle cx="21" cy="21" r="21" fill="url(#paint0_linear_0_1)"/>
<path d="M21.5625 27.6094C21.5625 27.9616 21.4226 28.2994 21.1735 28.5485C20.9244 28.7976 20.5866 28.9375 20.2344 28.9375C19.8821 28.9375 19.5443 28.7976 19.2952 28.5485C19.0462 28.2994 18.9062 27.9616 18.9062 27.6094C18.9062 27.2571 19.0462 26.9193 19.2952 26.6702C19.5443 26.4212 19.8821 26.2812 20.2344 26.2812C20.5866 26.2812 20.9244 26.4212 21.1735 26.6702C21.4226 26.9193 21.5625 27.2571 21.5625 27.6094ZM20.2832 25.3367C19.5342 25.3367 18.9259 24.7752 18.9259 24.0829V22.6007C18.9259 21.6854 19.6356 20.9002 20.61 20.7339C21.4382 20.5932 22.0353 19.9222 22.0353 19.1423V18.4814C22.0353 17.5815 21.2692 16.833 20.3231 16.8117C19.8585 16.7977 19.4065 16.9637 19.0614 17.275C18.7235 17.5815 18.5375 17.9922 18.5375 18.4294C18.5375 19.1211 17.9293 19.6831 17.1802 19.6831C16.4311 19.6831 15.817 19.1211 15.817 18.4241C15.817 17.3063 16.2957 16.2555 17.1574 15.4756C18.0249 14.6947 19.1681 14.2739 20.3794 14.3C22.7897 14.3467 24.75 16.2242 24.75 18.4761V19.1423C24.75 20.9257 23.5159 22.4833 21.7362 23.0454C21.7087 23.0539 21.6845 23.0709 21.6673 23.094C21.6502 23.1172 21.6408 23.1452 21.6406 23.174V24.0782C21.6406 24.7752 21.0328 25.3367 20.2832 25.3367Z" fill="white"/>
<defs>
<linearGradient id="paint0_linear_0_1" x1="21" y1="-1.37463e-06" x2="82.5" y2="21" gradientUnits="userSpaceOnUse">
<stop stop-color="#0E313E"/>
<stop offset="1" stop-color="#0B1524"/>
</linearGradient>
</defs>
</svg>
